HIERARCHY
ROOT Hips
{
	OFFSET 0.000000 0.000000 0.000000
	CHANNELS 6 Xposition Yposition Zposition Zrotation Yrotation Xrotation 
	JOINT LHipJoint
	{
		OFFSET 0.000000 0.000000 0.000000
		CHANNELS 3 Zrotation Yrotation Xrotation
		JOINT LeftUpLeg
		{
			OFFSET 1.363060 -1.794630 0.839290
			CHANNELS 3 Zrotation Yrotation Xrotation
			JOINT LeftLeg
			{
				OFFSET 2.448110 -6.726130 0.000000
				CHANNELS 3 Zrotation Yrotation Xrotation
				JOINT LeftFoot
				{
					OFFSET 2.562200 -7.039590 0.000000
					CHANNELS 3 Zrotation Yrotation Xrotation
					JOINT LeftToeBase
					{
						OFFSET 0.157640 -0.433110 2.322550
						CHANNELS 3 Zrotation Yrotation Xrotation
						End Site
						{
							OFFSET 0.000000 0.000000 0.000000
						}
					}
				}
			}
		}
	}
	JOINT RHipJoint
	{
		OFFSET 0.000000 0.000000 0.000000
		CHANNELS 3 Zrotation Yrotation Xrotation
		JOINT RightUpLeg
		{
			OFFSET -1.305520 -1.794630 0.839290
			CHANNELS 3 Zrotation Yrotation Xrotation
			JOINT RightLeg
			{
				OFFSET -2.542530 -6.985550 0.000000
				CHANNELS 3 Zrotation Yrotation Xrotation
				JOINT RightFoot
				{
					OFFSET -2.568260 -7.056230 0.000000
					CHANNELS 3 Zrotation Yrotation Xrotation
					JOINT RightToeBase
					{
						OFFSET -0.164730 -0.452590 2.363150
						CHANNELS 3 Zrotation Yrotation Xrotation
						End Site
						{
							OFFSET 0.000000 0.000000 0.000000
						}
					}
				}
			}
		}
	}
	JOINT LowerBack
	{
		OFFSET 0.000000 0.000000 0.000000
		CHANNELS 3 Zrotation Yrotation Xrotation
		JOINT Spine
		{
			OFFSET 0.028270 2.035590 -0.193380
			CHANNELS 3 Zrotation Yrotation Xrotation
			JOINT Spine1
			{
				OFFSET 0.056720 2.048850 -0.042750
				CHANNELS 3 Zrotation Yrotation Xrotation
				JOINT Neck
				{
					OFFSET 0.000000 0.000000 0.000000
					CHANNELS 3 Zrotation Yrotation Xrotation
					JOINT Neck1
					{
						OFFSET -0.054170 1.746240 0.172020
						CHANNELS 3 Zrotation Yrotation Xrotation
						JOINT Head
						{
							OFFSET 0.104070 1.761360 -0.123970
							CHANNELS 3 Zrotation Yrotation Xrotation
							End Site
							{
								OFFSET 0.000000 0.000000 0.000000
							}
						}
					}
				}
				JOINT LeftShoulder
				{
					OFFSET 0.000000 0.000000 0.000000
					CHANNELS 3 Zrotation Yrotation Xrotation
					JOINT LeftArm
					{
						OFFSET 3.362410 1.200890 -0.311210
						CHANNELS 3 Zrotation Yrotation Xrotation
						JOINT LeftForeArm
						{
							OFFSET 4.983000 -0.000000 -0.000000
							CHANNELS 3 Zrotation Yrotation Xrotation
							JOINT LeftHand
							{
								OFFSET 3.483560 -0.000000 -0.000000
								CHANNELS 3 Zrotation Yrotation Xrotation
								JOINT LeftFingerBase
								{
									OFFSET 0.000000 0.000000 0.000000
									CHANNELS 3 Zrotation Yrotation Xrotation
									JOINT LeftHandIndex1
									{
										OFFSET 0.715260 -0.000000 -0.000000
										CHANNELS 3 Zrotation Yrotation Xrotation
										End Site
										{
											OFFSET 0.000000 0.000000 0.000000
										}
									}
								}
								JOINT LThumb
								{
									OFFSET 0.000000 0.000000 0.000000
									CHANNELS 3 Zrotation Yrotation Xrotation
									End Site
									{
										OFFSET 0.000000 0.000000 0.000000
									}
								}
							}
						}
					}
				}
				JOINT RightShoulder
				{
					OFFSET 0.000000 0.000000 0.000000
					CHANNELS 3 Zrotation Yrotation Xrotation
					JOINT RightArm
					{
						OFFSET -3.136600 1.374050 -0.404650
						CHANNELS 3 Zrotation Yrotation Xrotation
						JOINT RightForeArm
						{
							OFFSET -5.241900 -0.000000 -0.000000
							CHANNELS 3 Zrotation Yrotation Xrotation
							JOINT RightHand
							{
								OFFSET -3.444170 -0.000000 -0.000000
								CHANNELS 3 Zrotation Yrotation Xrotation
								JOINT RightFingerBase
								{
									OFFSET 0.000000 0.000000 0.000000
									CHANNELS 3 Zrotation Yrotation Xrotation
									JOINT RightHandIndex1
									{
										OFFSET -0.622530 -0.000000 -0.000000
										CHANNELS 3 Zrotation Yrotation Xrotation
										End Site
										{
											OFFSET 0.000000 0.000000 0.000000
										}
									}
								}
								JOINT RThumb
								{
									OFFSET 0.000000 0.000000 0.000000
									CHANNELS 3 Zrotation Yrotation Xrotation
									End Site
									{
										OFFSET 0.000000 0.000000 0.000000
									}
								}
							}
						}
					}
				}
			}
		}
	}
}
MOTION
Frames: 11
Frame Time: 0.008333
1.781862 17.151608 1.514168 -106.002496 -84.608040 123.083955 -9.922251 -0.071122 6.115617 0.718308 -7.663887 -46.760550 0.393563 1.084904 42.724102 3.708030 17.622467 -11.408004 -0.406400 -0.000001 -13.117700 7.259199 -2.912680 5.715725 22.619383 8.427926 -6.141359 4.210846 2.421748 -0.199424 -0.800572 -0.656868 -11.260391 -179.873800 -0.000000 -20.631000 2.922407 0.434652 -13.213900 -0.756952 -0.573324 -5.089208 -8.973951 -0.505775 1.544316 14.103704 -10.154050 -7.930273 -3.591647 -0.291091 -0.001152 0.000000 0.000000 0.000000 2.726707 16.226040 0.825617 -60.248560 6.738703 -11.700750 -1.277645 -58.431673 0.007661 24.201000 -9.904653 -2.153958 -0.170081 0.062986 0.000000 0.000000 0.000000 0.000000 0.000000 0.000000 0.000000 15.693701 -3.787386 -3.745327 70.958797 19.570787 0.414874 -179.851808 79.774113 179.883997 -19.641081 36.910149 -6.892006 0.238906 -1.006931 -0.000000 0.000000 0.000000 0.000000 0.000000 0.000000 0.000000 
1.514998 17.142735 1.502928 -113.527229 -84.411904 130.577396 -9.862038 -0.046754 6.278456 0.499503 -7.319589 -47.223541 0.205589 0.865337 38.843779 3.663913 17.022339 -10.900760 -0.164101 -0.000000 -14.731300 7.232482 -2.971879 5.510754 22.532755 7.718137 -4.493326 4.224777 2.505745 -1.224881 -0.638560 -0.117113 -10.548946 -179.928601 -0.000000 -20.254399 2.862811 1.061424 -13.210796 -0.833316 0.046005 -5.127935 -8.980623 0.112439 1.460125 13.773705 -9.405207 -7.800102 -3.546419 -0.288517 0.028794 0.000000 0.000000 0.000000 2.129303 17.143815 0.951550 -58.494653 6.837862 -13.941071 -1.308197 -57.330969 0.013239 24.792989 -9.674752 -2.151890 -0.163254 0.043010 0.000000 0.000000 0.000000 0.000000 0.000000 0.000000 0.000000 15.045310 -2.680429 -3.763070 71.119206 19.882246 2.225166 -179.806149 79.778370 179.887471 -19.042380 38.195209 -6.927790 0.229014 -1.036622 -0.000000 0.000000 0.000000 0.000000 0.000000 0.000000 0.000000 
1.246716 17.130569 1.495097 -119.826379 -84.135648 136.820971 -9.864748 -0.045483 6.401583 0.204230 -6.745904 -47.553917 -0.010956 0.618366 34.770862 3.555138 16.191848 -10.254229 0.101400 0.000000 -16.637800 7.165671 -3.072293 5.303467 22.446102 7.011186 -2.884054 4.250620 2.549301 -2.122499 -0.446025 0.565516 -9.684070 -179.983400 0.000000 -19.151200 2.860732 1.656465 -13.166193 -0.891094 0.630305 -5.158071 -8.974978 0.694579 1.379686 13.411222 -8.635422 -7.684462 -3.493161 -0.285073 0.055123 0.000000 0.000000 0.000000 1.482515 18.141672 1.058136 -56.726035 6.819284 -16.178082 -1.338228 -56.313943 0.018287 25.332289 -9.487762 -2.153015 -0.156553 0.025738 0.000000 0.000000 0.000000 0.000000 0.000000 0.000000 0.000000 14.331657 -1.573548 -3.795015 71.243960 20.178732 3.984736 -179.754243 79.823111 179.889976 -18.507256 39.319285 -6.943219 0.219334 -1.063268 -0.000000 0.000000 0.000000 0.000000 0.000000 0.000000 0.000000 
0.977643 17.115583 1.490148 -124.764021 -83.808028 141.657908 -9.908237 -0.064556 6.471405 -0.208425 -5.941868 -47.742976 -0.270470 0.344261 30.564856 3.372080 15.099835 -9.544203 0.348500 0.000001 -18.492700 7.088138 -3.207782 5.085607 22.350692 6.279219 -1.304527 4.285221 2.548275 -2.866845 -0.226078 1.402243 -8.678829 179.974200 -0.000000 -17.390700 2.922680 2.212700 -13.057160 -0.928746 1.173481 -5.174241 -8.959152 1.235254 1.304120 13.025391 -7.879101 -7.588586 -3.432620 -0.280752 0.076356 0.000000 0.000000 0.000000 0.782887 19.192155 1.142940 -54.939938 6.716690 -18.407553 -1.364221 -55.413721 0.022703 25.803704 -9.328790 -2.153529 -0.150073 0.011058 0.000000 0.000000 0.000000 0.000000 0.000000 0.000000 0.000000 13.576069 -0.506284 -3.837872 71.347319 20.502722 5.721128 -179.698053 79.931573 179.891593 -18.066309 40.271390 -6.952693 0.210649 -1.086239 -0.000000 0.000000 0.000000 0.000000 0.000000 0.000000 0.000000 
0.708000 17.098131 1.487644 -128.516615 -83.448916 145.254288 -9.974474 -0.098694 6.481249 -0.769272 -4.917929 -47.798364 -0.584231 0.045869 26.298678 3.107244 13.718305 -8.821471 0.545600 -0.000001 -20.222300 7.018257 -3.369253 4.854372 22.233625 5.510200 0.244607 4.324974 2.502321 -3.431886 0.013098 2.382364 -7.553483 179.958000 0.000000 -15.030200 3.046723 2.730207 -12.873699 -0.947121 1.676855 -5.174325 -8.935598 1.736061 1.232891 12.622897 -7.143232 -7.512177 -3.365021 -0.275570 0.092512 0.000000 0.000000 0.000000 0.043555 20.287466 1.205862 -53.149673 6.538962 -20.618124 -1.384506 -54.627883 0.026374 26.201880 -9.187163 -2.151235 -0.143963 -0.001060 -0.000000 0.000000 0.000000 0.000000 0.000000 0.000000 0.000000 12.787565 0.514060 -3.892045 71.446608 20.853551 7.430762 -179.638411 80.105241 179.892311 -17.733396 41.047636 -6.965219 0.203269 -1.105315 -0.000000 0.000000 0.000000 0.000000 0.000000 0.000000 0.000000 
0.437603 17.078567 1.487063 -131.371428 -83.073376 147.897463 -10.049799 -0.144916 6.433708 -1.491066 -3.709460 -47.746073 -0.954637 -0.272677 22.057406 2.758465 12.035323 -8.098642 0.676800 0.000001 -22.104100 6.963933 -3.547577 4.613463 22.079384 4.710204 1.749201 4.365414 2.414640 -3.794928 0.258448 3.472521 -6.349876 179.980500 -0.000000 -12.238100 3.219066 3.211750 -12.622648 -0.949660 2.144862 -5.158750 -8.906153 2.201521 1.168638 12.211598 -6.426923 -7.455160 -3.289960 -0.269507 0.103566 0.000000 0.000000 0.000000 -0.706920 21.440474 1.246817 -51.381761 6.261998 -22.795882 -1.399291 -53.921820 0.029171 26.529862 -9.063835 -2.147032 -0.138471 -0.010454 -0.000000 0.000000 0.000000 0.000000 0.000000 0.000000 0.000000 11.970724 1.489041 -3.960983 71.560116 21.212731 9.100249 -179.575334 80.336283 179.892079 -17.506337 41.651832 -6.984690 0.197133 -1.120501 -0.000000 0.000000 0.000000 0.000000 0.000000 0.000000 0.000000 
0.166691 17.057265 1.487925 -133.619333 -82.700690 149.861305 -10.120171 -0.204490 6.329706 -2.374519 -2.375501 -47.585625 -1.376108 -0.605863 17.947198 2.331810 10.047875 -7.427209 0.722200 0.000000 -24.102800 6.932210 -3.735948 4.353169 21.862087 3.841766 3.212402 4.401784 2.286959 -3.935991 0.501032 4.658276 -5.108548 -179.949200 -0.000000 -9.151800 3.417774 3.656210 -12.293333 -0.940760 2.579990 -5.125397 -8.871007 2.634071 1.110423 11.797564 -5.744749 -7.416104 -3.208255 -0.262643 0.109819 0.000000 0.000000 0.000000 -1.454552 22.628687 1.267239 -49.653528 5.905120 -24.939181 -1.407280 -53.292597 0.031027 26.786762 -8.954925 -2.140419 -0.133683 -0.017144 -0.000000 0.000000 0.000000 0.000000 0.000000 0.000000 0.000000 11.139298 2.403001 -4.041755 71.700657 21.588654 10.733784 -179.510496 80.632674 179.891172 -17.378975 42.095379 -7.013304 0.192371 -1.131723 -0.000000 0.000000 0.000000 0.000000 0.000000 0.000000 0.000000 
-0.105243 17.034519 1.489799 -135.442588 -82.343960 151.337498 -10.174849 -0.280437 6.184374 -3.376293 -1.003670 -47.347404 -1.828325 -0.946042 14.084367 1.846189 7.787541 -6.843953 0.680600 -0.000000 -26.280400 6.922208 -3.927841 4.078319 21.569990 2.915163 4.615801 4.429518 2.126304 -3.848226 0.726866 5.889068 -3.900525 -179.830200 -0.000000 -6.191800 3.626302 4.064600 -11.904330 -0.923998 2.984351 -5.077471 -8.830565 3.035641 1.058809 11.386845 -5.105235 -7.392365 -3.120576 -0.255112 0.112107 0.000000 0.000000 0.000000 -2.177652 23.831574 1.269136 -47.986263 5.490732 -27.041613 -1.407697 -52.732728 0.031912 26.978011 -8.860850 -2.132196 -0.129769 -0.021137 -0.000000 0.000000 0.000000 0.000000 0.000000 0.000000 0.000000 10.302398 3.247430 -4.132619 71.880561 21.971392 12.329501 -179.445286 80.993267 179.889826 -17.331943 42.394146 -7.047760 0.188835 -1.139076 -0.000000 0.000000 0.000000 0.000000 0.000000 0.000000 0.000000 
-0.377745 17.010782 1.491931 -137.053898 -82.032658 152.519483 -10.200804 -0.370955 6.009090 -4.446148 0.291044 -46.999488 -2.282252 -1.282922 10.567183 1.332097 5.330218 -6.388373 0.564500 0.000000 -28.611200 6.944950 -4.120848 3.768284 21.158723 1.852657 5.963973 4.442653 1.930493 -3.519538 0.935673 7.171724 -2.716252 -179.661200 0.000000 -3.027599 3.811896 4.430650 -11.442375 -0.905333 3.356219 -5.014006 -8.784245 3.404240 1.007383 10.985400 -4.521304 -7.376649 -3.029883 -0.247234 0.112320 0.000000 0.000000 0.000000 -2.863944 24.986831 1.259186 -46.391640 5.093384 -29.104484 -1.398417 -52.270243 0.031852 27.101858 -8.774331 -2.120764 -0.126682 -0.022659 -0.000000 0.000000 0.000000 0.000000 0.000000 0.000000 0.000000 9.483131 4.008378 -4.224742 72.104069 22.370939 13.893112 -179.382557 81.427411 179.888463 -17.344152 42.568181 -7.083848 0.186561 -1.142694 -0.000000 0.000000 0.000000 0.000000 0.000000 0.000000 0.000000 
-0.652026 16.986172 1.494013 -138.444128 -81.769308 153.444534 -10.199517 -0.474955 5.838990 -5.468051 1.394923 -46.595351 -2.701735 -1.604668 7.479096 0.827827 2.792714 -6.073388 0.405700 0.000000 -31.178500 6.988182 -4.307614 3.447959 20.653230 0.746221 7.218538 4.439168 1.714029 -2.971486 1.111517 8.406323 -1.650814 -179.460100 -0.000000 -0.461600 3.972963 4.759157 -10.967235 -0.886339 3.696869 -4.944213 -8.733481 3.741313 0.964534 10.602859 -3.997953 -7.370525 -2.936714 -0.239127 0.110316 0.000000 0.000000 0.000000 -3.478297 26.101724 1.238690 -44.897172 4.703179 -31.110427 -1.380861 -51.875846 0.030872 27.169442 -8.713278 -2.111524 -0.124795 -0.021596 -0.000000 0.000000 0.000000 0.000000 0.000000 0.000000 0.000000 8.691496 4.682335 -4.319096 72.378874 22.766493 15.420781 -179.322957 81.925100 179.887315 -17.382348 42.637667 -7.111661 0.185094 -1.142887 -0.000000 0.000000 0.000000 0.000000 0.000000 0.000000 0.000000 
-0.928353 16.961004 1.495279 -139.703877 -81.571921 154.214447 -10.171137 -0.583733 5.696489 -6.355340 2.200638 -46.112967 -3.057860 -1.899713 4.860890 0.370326 0.320808 -5.917553 0.237600 0.000000 -33.817400 7.055272 -4.486331 3.114833 20.039769 -0.409235 8.371739 4.415028 1.478041 -2.220039 1.256026 9.566055 -0.662092 0.765100 -0.000000 -1.907900 4.087014 5.047956 -10.497693 -0.872287 4.004980 -4.871353 -8.679819 4.045677 0.932398 10.250961 -3.546107 -7.372308 -2.844136 -0.231070 0.106527 0.000000 0.000000 0.000000 -3.996588 27.149460 1.212511 -43.516530 4.349475 -33.050958 -1.355231 -51.552476 0.029042 27.183534 -8.687782 -2.107374 -0.124244 -0.018026 -0.000000 0.000000 0.000000 0.000000 0.000000 0.000000 0.000000 7.956330 5.258994 -4.409179 72.703528 23.163403 16.918412 -179.268244 82.487823 179.886763 -17.419484 42.625099 -7.123896 0.184323 -1.140006 -0.000000 0.000000 0.000000 0.000000 0.000000 0.000000 0.000000 
